<svg id="Capa_1" data-name="Capa 1" xmlns="http://www.w3.org/2000/svg" viewBox="0 0 512 512">
  <defs>
    <style>
      .cls-1 {
        fill: #fff;
      }
    </style>
  </defs>
  <title>mvc</title>
  <path class="cls-1" d="M504,80H482c-.61-1.58-1.28-3.15-2-4.69l13.66-13.65a8,8,0,0,0,0-11.32h0l-32-32a8,8,0,0,0-11.32,0h0L436.69,32c-1.54-.71-3.11-1.37-4.69-2V8a8,8,0,0,0-8-8H376a8,8,0,0,0-8,8V30c-1.58.61-3.15,1.28-4.69,2L349.66,18.34a8,8,0,0,0-11.32,0h0l-32,32a8,8,0,0,0,0,11.32h0L320,75.31c-.71,1.54-1.37,3.11-2,4.69H296a8,8,0,0,0-8,8v48a8,8,0,0,0,8,8h22c.61,1.58,1.28,3.15,2,4.69l-13.66,13.65a8,8,0,0,0,0,11.32h0l32,32a8,8,0,0,0,11.32,0h0L363.31,192c1.54.7,3.11,1.37,4.69,2v22a8,8,0,0,0,8,8h48a8,8,0,0,0,8-8V194c1.58-.61,3.15-1.28,4.69-2l13.65,13.65a8,8,0,0,0,11.32,0h0l32-32a8,8,0,0,0,0-11.32h0L480,148.69c.7-1.54,1.37-3.11,2-4.69h22a8,8,0,0,0,8-8V88A8,8,0,0,0,504,80Zm-8,48H476.33a8,8,0,0,0-7.63,5.61,72.07,72.07,0,0,1-5.45,12.83,8,8,0,0,0,1.36,9.49L476.69,168,456,188.69l-12.07-12.08a8,8,0,0,0-9.49-1.36,72.07,72.07,0,0,1-12.83,5.45,8,8,0,0,0-5.61,7.63V208H384V188.33a8,8,0,0,0-5.61-7.63,72.07,72.07,0,0,1-12.83-5.45,8,8,0,0,0-9.49,1.36L344,188.69,323.31,168l12.08-12.07a8,8,0,0,0,1.36-9.49,72.07,72.07,0,0,1-5.45-12.83,8,8,0,0,0-7.63-5.61H304V96h19.67a8,8,0,0,0,7.63-5.61,72.07,72.07,0,0,1,5.45-12.83,8,8,0,0,0-1.36-9.49L323.31,56,344,35.31l12.07,12.08a8,8,0,0,0,9.49,1.36,72.07,72.07,0,0,1,12.83-5.45A8,8,0,0,0,384,35.67V16h32V35.67a8,8,0,0,0,5.61,7.63,72.07,72.07,0,0,1,12.83,5.45,8,8,0,0,0,9.49-1.36L456,35.31,476.69,56,464.61,68.07a8,8,0,0,0-1.36,9.49,72.07,72.07,0,0,1,5.45,12.83A8,8,0,0,0,476.33,96H496Z" transform="translate(0 0)"/>
  <path class="cls-1" d="M400,48a64,64,0,1,0,64,64A64,64,0,0,0,400,48Zm0,112a48,48,0,1,1,48-48A48,48,0,0,1,400,160Z" transform="translate(0 0)"/>
  <path class="cls-1" d="M400,80a32,32,0,1,0,32,32A32,32,0,0,0,400,80Zm0,48a16,16,0,1,1,16-16A16,16,0,0,1,400,128Z" transform="translate(0 0)"/>
  <path class="cls-1" d="M392,400a40,40,0,1,0,40,40A40,40,0,0,0,392,400Zm0,64a24,24,0,1,1,24-24A24,24,0,0,1,392,464Z" transform="translate(0 0)"/>
  <circle class="cls-1" cx="40" cy="232" r="8"/>
  <circle class="cls-1" cx="392" cy="440" r="8"/>
  <circle class="cls-1" cx="40" cy="280" r="8"/>
  <circle class="cls-1" cx="40" cy="328" r="8"/>
  <path class="cls-1" d="M424,240H376a8,8,0,0,0-8,8v56H352a8,8,0,0,0-5.66,13.66l48,48a8,8,0,0,0,11.32,0h0l48-48A8,8,0,0,0,448,304H432V248A8,8,0,0,0,424,240ZM400,348.69,371.31,320H376a8,8,0,0,0,8-8V256h32v56a8,8,0,0,0,8,8h4.69Z" transform="translate(0 0)"/>
  <path class="cls-1" d="M147.54,358.06A76.13,76.13,0,0,0,160,351.78v27.94a8,8,0,0,0,13.66,5.65L185,374.06l39.6,39.6a8,8,0,0,0,11.31,0h0l33.94-33.94a8,8,0,0,0,0-11.32h0l-39.6-39.6,11.31-11.31a8,8,0,0,0-5.66-13.66H176V208h59.88a8,8,0,0,0,5.66-13.66L230.23,183l39.6-39.6a8,8,0,0,0,0-11.31h0L235.88,98.18a8,8,0,0,0-11.31,0h0L185,137.78l-11.32-11.32A8,8,0,0,0,160,132.12v28.1a74.58,74.58,0,0,0-12.46-6.28c-16-6.41-37.18-9.94-59.54-9.94S44.49,147.53,28.46,154C10.11,161.29,0,172,0,184V328c0,12,10.11,22.71,28.46,30.06C44.49,364.47,65.64,368,88,368S131.51,364.47,147.54,358.06ZM176,151.43l3.31,3.32a8,8,0,0,0,11.32,0h0l39.6-39.6,22.63,22.62-39.6,39.6a8,8,0,0,0,0,11.32h0l3.31,3.31H176Zm0,168.4h40.57l-3.32,3.32a8,8,0,0,0,0,11.31h0l39.6,39.6-22.62,22.63-39.6-39.6a8,8,0,0,0-11.32,0h0L176,360.4ZM88,160c43.95,0,72,14.22,72,24S132,208,88,208s-72-14.21-72-24S44.05,160,88,160ZM16,207.78a76.13,76.13,0,0,0,12.46,6.28C44.49,220.47,65.64,224,88,224s43.51-3.53,59.54-9.94A76.13,76.13,0,0,0,160,207.78V232c0,9.79-28.05,24-72,24s-72-14.21-72-24Zm0,48a76.13,76.13,0,0,0,12.46,6.28C44.49,268.47,65.64,272,88,272s43.51-3.53,59.54-9.94A76.13,76.13,0,0,0,160,255.78V280c0,9.79-28.05,24-72,24s-72-14.21-72-24ZM16,328V303.78a76.13,76.13,0,0,0,12.46,6.28C44.49,316.47,65.64,320,88,320s43.51-3.53,59.54-9.94A76.13,76.13,0,0,0,160,303.78V328c0,9.79-28.05,24-72,24S16,337.79,16,328Z" transform="translate(0 0)"/>
  <path class="cls-1" d="M480.15,401.88C453.83,379.72,423.35,368,392,368s-61.83,11.72-88.15,33.88c-19.74,16.62-30.2,33.18-30.63,33.88a8,8,0,0,0,0,8.48c.43.7,10.89,17.26,30.63,33.88C330.17,500.28,360.65,512,392,512s61.83-11.72,88.15-33.88c19.74-16.62,30.2-33.18,30.63-33.88a8,8,0,0,0,0-8.48C510.35,435.06,499.89,418.5,480.15,401.88Zm-10.7,64.33C445.82,486,419.76,496,392,496s-53.82-10-77.45-29.79A155.45,155.45,0,0,1,289.75,440a155.45,155.45,0,0,1,24.8-26.21C338.18,394,364.24,384,392,384s53.82,10,77.45,29.79A155.45,155.45,0,0,1,494.25,440a155.45,155.45,0,0,1-24.8,26.21Z" transform="translate(0 0)"/>
</svg>
