<svg xmlns="http://www.w3.org/2000/svg" viewBox="0 0 95 80.72">
  <defs>
    <style>
      .cls-1 {
        fill: #fff;
      }
    </style>
  </defs>
  <title>oop</title>
  <g id="Capa_1" data-name="Capa 1">
    <path class="cls-1" d="M180.76,129.65l-14.4-6.6a31.51,31.51,0,0,0-14-22.7V90.05A2.26,2.26,0,0,0,151,88l-15.3-7a2.12,2.12,0,0,0-1.9,0l-15.4,7.1a2.43,2.43,0,0,0-1.4,2.1v10.2a31.9,31.9,0,0,0-14,22.8l-14.4,6.5a2.43,2.43,0,0,0-1.4,2.1v20.3a2.26,2.26,0,0,0,1.4,2.1l15.4,7.1a2.6,2.6,0,0,0,2,0l13.5-6.2a30.88,30.88,0,0,0,30.4,0l13.5,6.2a3,3,0,0,0,1,.2,3.55,3.55,0,0,0,1-.2l15.4-7.1a2.43,2.43,0,0,0,1.4-2.1v-20.3A2.17,2.17,0,0,0,180.76,129.65Zm-29.5,5.7,10.8,4.9v15.2l-10.8-4.9Zm13.1.9-9.8-4.5,9.8-4.5,9.9,4.5Zm-42.8-42.5,10.8,4.9v15.2l-10.8-4.9Zm15.4,4.9,10.8-4.9V109l-10.8,4.9Zm-2.3-13.1,9.8,4.5-9.8,4.6-9.8-4.6Zm-27.4,54.7,10.8-4.9v15.2l-10.8,4.9Zm-2.3-4-9.9-4.5,9.9-4.5,9.8,4.5Zm-13.1-.9,10.8,4.9v15.2l-10.8-4.9Zm30.8,16.1v-19.7a2.26,2.26,0,0,0-1.4-2.1l-13.8-6.3a27,27,0,0,1,9.3-17.2v4.3a2.26,2.26,0,0,0,1.4,2.1l15.5,7a2.6,2.6,0,0,0,2,0l15.4-7.1a2.43,2.43,0,0,0,1.4-2.1v-4.3a27.47,27.47,0,0,1,9.3,17.2l-13.8,6.3a2.43,2.43,0,0,0-1.4,2.1v19.8a26.82,26.82,0,0,1-12,2.8A25.73,25.73,0,0,1,122.66,151.45Zm44.1,4v-15.2l10.8-4.9v15.2Z" transform="translate(-87.16 -80.72)"/>
  </g>
</svg>
